<?xml version="1.0" encoding="UTF-8" standalone="no"?>
<!-- Created with Inkscape (http://www.inkscape.org/) -->

<svg
   xmlns:dc="http://purl.org/dc/elements/1.1/"
   xmlns:cc="http://creativecommons.org/ns#"
   xmlns:rdf="http://www.w3.org/1999/02/22-rdf-syntax-ns#"
   xmlns:svg="http://www.w3.org/2000/svg"
   xmlns="http://www.w3.org/2000/svg"
   xmlns:sodipodi="http://sodipodi.sourceforge.net/DTD/sodipodi-0.dtd"
   xmlns:inkscape="http://www.inkscape.org/namespaces/inkscape"
   width="155.01015"
   height="38.6525"
   id="svg3527"
   version="1.1"
   inkscape:version="0.48.4 r9939"
   sodipodi:docname="logo-consultone-alt-white.svg">
  <defs
     id="defs3529" />
  <sodipodi:namedview
     id="base"
     pagecolor="#ffffff"
     bordercolor="#666666"
     borderopacity="1.0"
     inkscape:pageopacity="0.0"
     inkscape:pageshadow="2"
     inkscape:zoom="4.2901514"
     inkscape:cx="45.897671"
     inkscape:cy="-7.0146852"
     inkscape:document-units="px"
     inkscape:current-layer="layer1"
     showgrid="false"
     fit-margin-top="0"
     fit-margin-left="0"
     fit-margin-right="0"
     fit-margin-bottom="0"
     inkscape:window-width="1366"
     inkscape:window-height="715"
     inkscape:window-x="0"
     inkscape:window-y="22"
     inkscape:window-maximized="1" />
  <metadata
     id="metadata3532">
    <rdf:RDF>
      <cc:Work
         rdf:about="">
        <dc:format>image/svg+xml</dc:format>
        <dc:type
           rdf:resource="http://purl.org/dc/dcmitype/StillImage" />
        <dc:title></dc:title>
      </cc:Work>
    </rdf:RDF>
  </metadata>
  <g
     inkscape:label="Layer 1"
     inkscape:groupmode="layer"
     id="layer1"
     transform="translate(-290.11068,-495.55636)">
    <g
       id="g3029"
       transform="translate(0,12)">
      <path
         inkscape:connector-curvature="0"
         d="m 301.34193,517.29511 c -1.31875,1.48375 -2.92,2.22625 -4.805,2.22625 -2.085,0 -3.70125,-0.7425 -4.84375,-2.22625 -1.055,-1.3525 -1.5825,-3.10625 -1.5825,-5.25375 0,-2.17375 0.51375,-3.92625 1.54375,-5.255 1.1325,-1.46875 2.75875,-2.20625 4.8825,-2.20625 1.04,0 1.91375,0.17125 2.6175,0.5075 0.7125,0.34125 1.445,0.91375 2.1875,1.71875 l -1.055,0.97625 c -1.10875,-1.235 -2.35875,-1.855 -3.75,-1.855 -3.2575,0 -4.8825,2.04125 -4.8825,6.11375 0,4.09125 1.625,6.1325 4.8825,6.1325 1.39125,0 2.64125,-0.615 3.75,-1.85625 l 1.055,0.9775 z m 15.1125,-5.25375 c 0,2.1875 -0.425,3.925 -1.27,5.21375 -0.99125,1.51375 -2.52,2.26625 -4.59,2.26625 -2.085,0 -3.6225,-0.7525 -4.60875,-2.26625 -0.85,-1.28875 -1.27,-3.02625 -1.27,-5.21375 0,-2.17375 0.42,-3.90625 1.27,-5.19625 0.98625,-1.50875 2.52375,-2.265 4.60875,-2.265 2.07,0 3.59875,0.75625 4.59,2.265 0.845,1.29 1.27,3.0225 1.27,5.19625 z m -1.54375,0 c 0,-4.0725 -1.44,-6.11375 -4.31625,-6.11375 -2.89,0 -4.33625,2.04125 -4.33625,6.11375 0,4.09125 1.44625,6.1325 4.33625,6.1325 2.87625,0 4.31625,-2.04125 4.31625,-6.1325 z m 17.485,7.30375 -1.5425,0 0,-9.0425 c 0,-2.915 -1.3425,-4.375 -4.02375,-4.375 -1.3175,0 -2.33375,0.4 -3.04625,1.19125 -0.7175,0.78125 -1.075,1.84625 -1.075,3.18375 l 0,9.0425 -1.5425,0 0,-14.59 1.5425,0 0,1.71875 c 1.09375,-1.25875 2.53,-1.89375 4.3175,-1.89375 1.665,0 2.97375,0.4875 3.925,1.465 0.9625,0.97625 1.445,2.30375 1.445,3.98375 l 0,9.31625 z m 15.71875,-4.14 c 0,1.51375 -0.625,2.63625 -1.875,3.37875 -1.03125,0.625 -2.35375,0.9375 -3.965,0.9375 -2.49,0 -4.45375,-0.69375 -5.89875,-2.09 l 1.055,-1.055 c 1.1325,1.20125 2.72375,1.7975 4.785,1.7975 2.915,0 4.375,-0.98625 4.375,-2.96875 0,-1.485 -0.9275,-2.305 -2.77375,-2.46125 l -2.42125,-0.215 c -1.31875,0 -2.35875,-0.2975 -3.125,-0.89875 -0.85,-0.66375 -1.27,-1.63 -1.27,-2.91 0,-1.39125 0.5475,-2.45125 1.64125,-3.18375 0.94625,-0.63375 2.1475,-0.95625 3.59375,-0.95625 2.04,0 3.75,0.5175 5.11625,1.5425 l -1.035,1.01625 c -1.1225,-0.82125 -2.48,-1.23125 -4.08125,-1.23125 -2.47625,0 -3.71125,0.9375 -3.71125,2.8125 0,1.46 0.98125,2.27625 2.94875,2.44125 l 2.36375,0.215 c 1.37625,0.1325 2.4025,0.445 3.06625,0.9375 0.805,0.625 1.21125,1.5925 1.21125,2.89125 z m 15.385,4.14 -1.5425,0 0,-1.71875 c -1.09375,1.265 -2.53,1.895 -4.2975,1.895 -1.69375,0 -3.0175,-0.47875 -3.96375,-1.445 -0.9525,-0.9775 -1.42625,-2.31 -1.42625,-4.00375 l 0,-9.3175 1.5425,0 0,9.04375 c 0,2.92 1.33875,4.375 4.02375,4.375 1.31375,0 2.32875,-0.39125 3.0475,-1.1725 0.7125,-0.79125 1.07375,-1.86 1.07375,-3.2025 l 0,-9.04375 1.5425,0 0,14.59 z m 10.3475,0 -1.32875,0 c -2.34375,0 -3.515,-1.26 -3.515,-3.78875 l 0,-17.77375 1.5425,0 0,17.75375 c 0,1.63125 0.7475,2.4425 2.24625,2.4425 l 1.055,0 0,1.36625 z"
         style="fill:#ffffff;fill-opacity:1;fill-rule:nonzero;stroke:none"
         id="path10835-3" />
      <path
         inkscape:connector-curvature="0"
         d="m 382.66943,519.34511 -1.3275,0 c -1.10875,0 -1.9725,-0.35125 -2.5975,-1.05375 -0.61625,-0.71375 -0.91875,-1.63125 -0.91875,-2.755 l 0,-9.62875 -1.9925,0 0,-1.1525 1.9925,0 0,-4.6675 1.54375,0 0,4.6675 3.3,0 0,1.1525 -3.3,0 0,9.64875 c 0,1.61625 0.74625,2.4225 2.245,2.4225 l 1.055,0 0,1.36625 z"
         style="fill:#ffffff;fill-opacity:1;fill-rule:nonzero;stroke:none"
         id="path10837-6" />
      <path
         inkscape:connector-curvature="0"
         d="m 389.75943,495.55636 1.5425,0 0,26.035 -1.5425,0 0,-26.035 z"
         style="fill:#ffffff;fill-opacity:1;fill-rule:nonzero;stroke:none"
         id="path10839-6" />
      <path
         inkscape:connector-curvature="0"
         d="m 410.24318,511.43511 c 0,1.39625 -0.0925,2.49 -0.27375,3.28125 -0.26375,1.1475 -0.77125,2.105 -1.52375,2.87125 -1.25,1.28875 -2.885,1.93375 -4.9025,1.93375 -4.4425,0 -6.66,-2.695 -6.66,-8.08625 0,-2.42125 0.49375,-4.31625 1.485,-5.68375 1.1325,-1.5725 2.85625,-2.3625 5.175,-2.3625 2.34375,0 4.0825,0.79 5.215,2.3625 0.98625,1.3675 1.485,3.2625 1.485,5.68375 z m -3.945,0 c 0,-1.3275 -0.1475,-2.32375 -0.43,-2.9875 -0.405,-1.01625 -1.18125,-1.52375 -2.325,-1.52375 -1.81125,0 -2.71375,1.50375 -2.71375,4.51125 0,1.3575 0.12625,2.36375 0.39,3.0275 0.415,1.01625 1.19125,1.52375 2.32375,1.52375 1.13375,0 1.905,-0.5075 2.325,-1.52375 0.2825,-0.67375 0.43,-1.685 0.43,-3.0275 z m 20.4975,7.91 -3.92625,0 0,-9.53125 c 0,-0.84375 -0.22875,-1.5325 -0.6825,-2.07 -0.46,-0.54625 -1.095,-0.82 -1.915,-0.82 -1.7575,0 -2.63625,0.96625 -2.63625,2.89 l 0,9.53125 -3.945,0 0,-15.78125 3.8475,0 0,1.465 c 1.025,-1.09375 2.34375,-1.64 3.945,-1.64 1.72875,0 3.04625,0.54125 3.945,1.62125 0.90875,1.08375 1.3675,2.5 1.3675,4.2575 l 0,10.0775 z m 16.895,-6.66 -9.88375,0 c 0,1.07 0.30375,1.92375 0.91875,2.55875 0.625,0.64 1.47,0.9575 2.53875,0.9575 1.39125,0 2.5825,-0.49375 3.57375,-1.485 l 2.38375,2.325 c -1.65625,1.655 -3.6525,2.48 -5.99625,2.48 -4.85875,0 -7.285,-2.695 -7.285,-8.08625 0,-2.31375 0.55125,-4.19875 1.66,-5.64375 1.21125,-1.6025 2.94875,-2.4025 5.215,-2.4025 2.1725,0 3.87625,0.7325 5.11625,2.1875 1.1725,1.3575 1.75875,3.13875 1.75875,5.35125 l 0,1.7575 z m -3.8875,-2.695 c 0,-0.58625 -0.11625,-1.1525 -0.35125,-1.69875 -0.4975,-1.08 -1.3775,-1.62125 -2.63625,-1.62125 -1.28,0 -2.15875,0.54125 -2.6375,1.62125 -0.24875,0.54625 -0.37125,1.1125 -0.37125,1.69875 l 5.99625,0 z"
         style="fill:#ffffff;fill-opacity:1;fill-rule:nonzero;stroke:none"
         id="path10841-7" />
    </g>
    <g
       style="font-size:40px;font-style:normal;font-variant:normal;font-weight:500;font-stretch:normal;line-height:125%;letter-spacing:0px;word-spacing:0px;fill:#999999;fill-opacity:1;stroke:none;font-family:DINbek Light;-inkscape-font-specification:DINbek Light"
       id="text2987" />
  </g>
</svg>
