<?xml version="1.0" encoding="UTF-8" standalone="no"?>
<!-- Created with Inkscape (http://www.inkscape.org/) -->

<svg
   xmlns:dc="http://purl.org/dc/elements/1.1/"
   xmlns:cc="http://creativecommons.org/ns#"
   xmlns:rdf="http://www.w3.org/1999/02/22-rdf-syntax-ns#"
   xmlns:svg="http://www.w3.org/2000/svg"
   xmlns="http://www.w3.org/2000/svg"
   xmlns:sodipodi="http://sodipodi.sourceforge.net/DTD/sodipodi-0.dtd"
   xmlns:inkscape="http://www.inkscape.org/namespaces/inkscape"
   width="155.01015"
   height="38.6525"
   id="svg3527"
   version="1.1"
   inkscape:version="0.48.4 r9939"
   sodipodi:docname="logo-consultone-alt.svg">
  <defs
     id="defs3529" />
  <sodipodi:namedview
     id="base"
     pagecolor="#ffffff"
     bordercolor="#666666"
     borderopacity="1.0"
     inkscape:pageopacity="0.0"
     inkscape:pageshadow="2"
     inkscape:zoom="5.2033525"
     inkscape:cx="66.821835"
     inkscape:cy="4.5756469"
     inkscape:document-units="px"
     inkscape:current-layer="layer1"
     showgrid="false"
     fit-margin-top="0"
     fit-margin-left="0"
     fit-margin-right="0"
     fit-margin-bottom="0"
     inkscape:window-width="1366"
     inkscape:window-height="715"
     inkscape:window-x="0"
     inkscape:window-y="22"
     inkscape:window-maximized="1" />
  <metadata
     id="metadata3532">
    <rdf:RDF>
      <cc:Work
         rdf:about="">
        <dc:format>image/svg+xml</dc:format>
        <dc:type
           rdf:resource="http://purl.org/dc/dcmitype/StillImage" />
        <dc:title></dc:title>
      </cc:Work>
    </rdf:RDF>
  </metadata>
  <g
     inkscape:label="Layer 1"
     inkscape:groupmode="layer"
     id="layer1"
     transform="translate(-290.11068,-495.55636)">
    <path
       id="path10835-3"
       style="fill:#999999;fill-opacity:1;fill-rule:nonzero;stroke:none"
       d="m 301.34193,517.29511 c -1.31875,1.48375 -2.92,2.22625 -4.805,2.22625 -2.085,0 -3.70125,-0.7425 -4.84375,-2.22625 -1.055,-1.3525 -1.5825,-3.10625 -1.5825,-5.25375 0,-2.17375 0.51375,-3.92625 1.54375,-5.255 1.1325,-1.46875 2.75875,-2.20625 4.8825,-2.20625 1.04,0 1.91375,0.17125 2.6175,0.5075 0.7125,0.34125 1.445,0.91375 2.1875,1.71875 l -1.055,0.97625 c -1.10875,-1.235 -2.35875,-1.855 -3.75,-1.855 -3.2575,0 -4.8825,2.04125 -4.8825,6.11375 0,4.09125 1.625,6.1325 4.8825,6.1325 1.39125,0 2.64125,-0.615 3.75,-1.85625 l 1.055,0.9775 z m 15.1125,-5.25375 c 0,2.1875 -0.425,3.925 -1.27,5.21375 -0.99125,1.51375 -2.52,2.26625 -4.59,2.26625 -2.085,0 -3.6225,-0.7525 -4.60875,-2.26625 -0.85,-1.28875 -1.27,-3.02625 -1.27,-5.21375 0,-2.17375 0.42,-3.90625 1.27,-5.19625 0.98625,-1.50875 2.52375,-2.265 4.60875,-2.265 2.07,0 3.59875,0.75625 4.59,2.265 0.845,1.29 1.27,3.0225 1.27,5.19625 z m -1.54375,0 c 0,-4.0725 -1.44,-6.11375 -4.31625,-6.11375 -2.89,0 -4.33625,2.04125 -4.33625,6.11375 0,4.09125 1.44625,6.1325 4.33625,6.1325 2.87625,0 4.31625,-2.04125 4.31625,-6.1325 z m 17.485,7.30375 -1.5425,0 0,-9.0425 c 0,-2.915 -1.3425,-4.375 -4.02375,-4.375 -1.3175,0 -2.33375,0.4 -3.04625,1.19125 -0.7175,0.78125 -1.075,1.84625 -1.075,3.18375 l 0,9.0425 -1.5425,0 0,-14.59 1.5425,0 0,1.71875 c 1.09375,-1.25875 2.53,-1.89375 4.3175,-1.89375 1.665,0 2.97375,0.4875 3.925,1.465 0.9625,0.97625 1.445,2.30375 1.445,3.98375 l 0,9.31625 z m 15.71875,-4.14 c 0,1.51375 -0.625,2.63625 -1.875,3.37875 -1.03125,0.625 -2.35375,0.9375 -3.965,0.9375 -2.49,0 -4.45375,-0.69375 -5.89875,-2.09 l 1.055,-1.055 c 1.1325,1.20125 2.72375,1.7975 4.785,1.7975 2.915,0 4.375,-0.98625 4.375,-2.96875 0,-1.485 -0.9275,-2.305 -2.77375,-2.46125 l -2.42125,-0.215 c -1.31875,0 -2.35875,-0.2975 -3.125,-0.89875 -0.85,-0.66375 -1.27,-1.63 -1.27,-2.91 0,-1.39125 0.5475,-2.45125 1.64125,-3.18375 0.94625,-0.63375 2.1475,-0.95625 3.59375,-0.95625 2.04,0 3.75,0.5175 5.11625,1.5425 l -1.035,1.01625 c -1.1225,-0.82125 -2.48,-1.23125 -4.08125,-1.23125 -2.47625,0 -3.71125,0.9375 -3.71125,2.8125 0,1.46 0.98125,2.27625 2.94875,2.44125 l 2.36375,0.215 c 1.37625,0.1325 2.4025,0.445 3.06625,0.9375 0.805,0.625 1.21125,1.5925 1.21125,2.89125 z m 15.385,4.14 -1.5425,0 0,-1.71875 c -1.09375,1.265 -2.53,1.895 -4.2975,1.895 -1.69375,0 -3.0175,-0.47875 -3.96375,-1.445 -0.9525,-0.9775 -1.42625,-2.31 -1.42625,-4.00375 l 0,-9.3175 1.5425,0 0,9.04375 c 0,2.92 1.33875,4.375 4.02375,4.375 1.31375,0 2.32875,-0.39125 3.0475,-1.1725 0.7125,-0.79125 1.07375,-1.86 1.07375,-3.2025 l 0,-9.04375 1.5425,0 0,14.59 z m 10.3475,0 -1.32875,0 c -2.34375,0 -3.515,-1.26 -3.515,-3.78875 l 0,-17.77375 1.5425,0 0,17.75375 c 0,1.63125 0.7475,2.4425 2.24625,2.4425 l 1.055,0 0,1.36625 z"
       inkscape:connector-curvature="0" />
    <path
       id="path10837-6"
       style="fill:#999999;fill-opacity:1;fill-rule:nonzero;stroke:none"
       d="m 382.66943,519.34511 -1.3275,0 c -1.10875,0 -1.9725,-0.35125 -2.5975,-1.05375 -0.61625,-0.71375 -0.91875,-1.63125 -0.91875,-2.755 l 0,-9.62875 -1.9925,0 0,-1.1525 1.9925,0 0,-4.6675 1.54375,0 0,4.6675 3.3,0 0,1.1525 -3.3,0 0,9.64875 c 0,1.61625 0.74625,2.4225 2.245,2.4225 l 1.055,0 0,1.36625 z"
       inkscape:connector-curvature="0" />
    <path
       id="path10839-6"
       style="fill:#999999;fill-opacity:1;fill-rule:nonzero;stroke:none"
       d="m 389.75943,495.55636 1.5425,0 0,26.035 -1.5425,0 0,-26.035 z"
       inkscape:connector-curvature="0" />
    <path
       id="path10841-7"
       style="fill:#0044aa;fill-opacity:1;fill-rule:nonzero;stroke:none"
       d="m 410.24318,511.43511 c 0,1.39625 -0.0925,2.49 -0.27375,3.28125 -0.26375,1.1475 -0.77125,2.105 -1.52375,2.87125 -1.25,1.28875 -2.885,1.93375 -4.9025,1.93375 -4.4425,0 -6.66,-2.695 -6.66,-8.08625 0,-2.42125 0.49375,-4.31625 1.485,-5.68375 1.1325,-1.5725 2.85625,-2.3625 5.175,-2.3625 2.34375,0 4.0825,0.79 5.215,2.3625 0.98625,1.3675 1.485,3.2625 1.485,5.68375 z m -3.945,0 c 0,-1.3275 -0.1475,-2.32375 -0.43,-2.9875 -0.405,-1.01625 -1.18125,-1.52375 -2.325,-1.52375 -1.81125,0 -2.71375,1.50375 -2.71375,4.51125 0,1.3575 0.12625,2.36375 0.39,3.0275 0.415,1.01625 1.19125,1.52375 2.32375,1.52375 1.13375,0 1.905,-0.5075 2.325,-1.52375 0.2825,-0.67375 0.43,-1.685 0.43,-3.0275 z m 20.4975,7.91 -3.92625,0 0,-9.53125 c 0,-0.84375 -0.22875,-1.5325 -0.6825,-2.07 -0.46,-0.54625 -1.095,-0.82 -1.915,-0.82 -1.7575,0 -2.63625,0.96625 -2.63625,2.89 l 0,9.53125 -3.945,0 0,-15.78125 3.8475,0 0,1.465 c 1.025,-1.09375 2.34375,-1.64 3.945,-1.64 1.72875,0 3.04625,0.54125 3.945,1.62125 0.90875,1.08375 1.3675,2.5 1.3675,4.2575 l 0,10.0775 z m 16.895,-6.66 -9.88375,0 c 0,1.07 0.30375,1.92375 0.91875,2.55875 0.625,0.64 1.47,0.9575 2.53875,0.9575 1.39125,0 2.5825,-0.49375 3.57375,-1.485 l 2.38375,2.325 c -1.65625,1.655 -3.6525,2.48 -5.99625,2.48 -4.85875,0 -7.285,-2.695 -7.285,-8.08625 0,-2.31375 0.55125,-4.19875 1.66,-5.64375 1.21125,-1.6025 2.94875,-2.4025 5.215,-2.4025 2.1725,0 3.87625,0.7325 5.11625,2.1875 1.1725,1.3575 1.75875,3.13875 1.75875,5.35125 l 0,1.7575 z m -3.8875,-2.695 c 0,-0.58625 -0.11625,-1.1525 -0.35125,-1.69875 -0.4975,-1.08 -1.3775,-1.62125 -2.63625,-1.62125 -1.28,0 -2.15875,0.54125 -2.6375,1.62125 -0.24875,0.54625 -0.37125,1.1125 -0.37125,1.69875 l 5.99625,0 z"
       inkscape:connector-curvature="0" />
    <g
       style="font-size:40px;font-style:normal;font-variant:normal;font-weight:500;font-stretch:normal;line-height:125%;letter-spacing:0px;word-spacing:0px;fill:#999999;fill-opacity:1;stroke:none;font-family:DINbek Light;-inkscape-font-specification:DINbek Light"
       id="text2987">
      <path
         d="m 358.58896,527.66237 -1.792,4.904 c -0.0747,0.208 -0.16267,0.35733 -0.264,0.448 -0.18134,0.16533 -0.42401,0.248 -0.728,0.248 l -0.192,0 0,-0.36 0.152,0 c 0.208,0 0.35733,-0.0373 0.448,-0.112 0.096,-0.0747 0.18133,-0.21333 0.256,-0.416 l 0.312,-0.856 -1.408,-3.856 0.448,0 1.16,3.376 1.16,-3.376 0.448,0"
         style="font-size:8px;fill:#999999;fill-opacity:1"
         id="path3779" />
      <path
         d="m 362.35446,529.59037 c -1e-5,0.576 -0.11201,1.03467 -0.336,1.376 -0.26134,0.4 -0.66667,0.6 -1.216,0.6 -0.54934,0 -0.95467,-0.2 -1.216,-0.6 -0.224,-0.34133 -0.336,-0.8 -0.336,-1.376 0,-0.576 0.112,-1.03466 0.336,-1.376 0.26133,-0.39999 0.66666,-0.59999 1.216,-0.6 0.54933,10e-6 0.95466,0.20001 1.216,0.6 0.22399,0.34134 0.33599,0.8 0.336,1.376 m -0.408,0 c -10e-6,-1.07733 -0.38134,-1.61599 -1.144,-1.616 -0.76267,10e-6 -1.14401,0.53867 -1.144,1.616 -10e-6,1.07734 0.38133,1.616 1.144,1.616 0.76266,0 1.14399,-0.53866 1.144,-1.616"
         style="font-size:8px;fill:#999999;fill-opacity:1"
         id="path3781" />
      <path
         d="m 366.59758,531.51837 -0.408,0 0,-0.456 c -0.288,0.336 -0.66667,0.504 -1.136,0.504 -0.448,0 -0.79733,-0.128 -1.048,-0.384 -0.25067,-0.256 -0.376,-0.608 -0.376,-1.056 l 0,-2.464 0.408,0 0,2.392 c 0,0.768 0.35467,1.152 1.064,1.152 0.34666,0 0.61333,-0.104 0.8,-0.312 0.192,-0.208 0.288,-0.488 0.288,-0.84 l 0,-2.392 0.408,0 0,3.856"
         style="font-size:8px;fill:#999999;fill-opacity:1"
         id="path3783" />
      <path
         d="m 370.61033,527.98237 -0.296,0.296 c -0.20267,-0.20266 -0.44534,-0.30399 -0.728,-0.304 -0.32,10e-6 -0.57333,0.11467 -0.76,0.344 -0.18133,0.224 -0.272,0.49867 -0.272,0.824 l 0,2.376 -0.408,0 0,-3.856 0.408,0 0,0.512 c 0.23467,-0.37333 0.61067,-0.55999 1.128,-0.56 0.368,10e-6 0.67733,0.12267 0.928,0.368"
         style="font-size:8px;fill:#999999;fill-opacity:1"
         id="path3785" />
      <path
         d="m 376.18683,530.42237 c 0,0.4 -0.16534,0.69867 -0.496,0.896 -0.272,0.16533 -0.62133,0.248 -1.048,0.248 -0.656,0 -1.176,-0.184 -1.56,-0.552 l 0.28,-0.28 c 0.29867,0.31467 0.72,0.472 1.264,0.472 0.77333,0 1.16,-0.26133 1.16,-0.784 0,-0.38933 -0.24534,-0.60533 -0.736,-0.648 l -0.64,-0.056 c -0.34667,0 -0.62133,-0.08 -0.824,-0.24 -0.224,-0.176 -0.336,-0.432 -0.336,-0.768 0,-0.368 0.144,-0.64799 0.432,-0.84 0.25067,-0.17066 0.568,-0.25599 0.952,-0.256 0.53866,10e-6 0.98933,0.13601 1.352,0.408 l -0.272,0.272 c -0.29867,-0.21866 -0.65867,-0.32799 -1.08,-0.328 -0.656,10e-6 -0.984,0.248 -0.984,0.744 0,0.384 0.26133,0.6 0.784,0.648 l 0.624,0.056 c 0.36266,0.032 0.632,0.11467 0.808,0.248 0.21333,0.16534 0.32,0.41867 0.32,0.76"
         style="font-size:8px;fill:#999999;fill-opacity:1"
         id="path3787" />
      <path
         d="m 380.29196,529.59037 c -1e-5,0.576 -0.11201,1.03467 -0.336,1.376 -0.26134,0.4 -0.66667,0.6 -1.216,0.6 -0.54934,0 -0.95467,-0.2 -1.216,-0.6 -0.224,-0.34133 -0.336,-0.8 -0.336,-1.376 0,-0.576 0.112,-1.03466 0.336,-1.376 0.26133,-0.39999 0.66666,-0.59999 1.216,-0.6 0.54933,10e-6 0.95466,0.20001 1.216,0.6 0.22399,0.34134 0.33599,0.8 0.336,1.376 m -0.408,0 c -10e-6,-1.07733 -0.38134,-1.61599 -1.144,-1.616 -0.76267,10e-6 -1.14401,0.53867 -1.144,1.616 -10e-6,1.07734 0.38133,1.616 1.144,1.616 0.76266,0 1.14399,-0.53866 1.144,-1.616"
         style="font-size:8px;fill:#999999;fill-opacity:1"
         id="path3789" />
      <path
         d="m 382.87908,531.51837 -0.352,0 c -0.61867,0 -0.928,-0.33333 -0.928,-1 l 0,-4.696 0.408,0 0,4.688 c 0,0.432 0.19733,0.648 0.592,0.648 l 0.28,0 0,0.36"
         style="font-size:8px;fill:#999999;fill-opacity:1"
         id="path3791" />
      <path
         d="m 386.83196,531.51837 -0.408,0 0,-0.456 c -0.28801,0.336 -0.66667,0.504 -1.136,0.504 -0.44801,0 -0.79734,-0.128 -1.048,-0.384 -0.25067,-0.256 -0.376,-0.608 -0.376,-1.056 l 0,-2.464 0.408,0 0,2.392 c -10e-6,0.768 0.35466,1.152 1.064,1.152 0.34666,0 0.61333,-0.104 0.8,-0.312 0.19199,-0.208 0.28799,-0.488 0.288,-0.84 l 0,-2.392 0.408,0 0,3.856"
         style="font-size:8px;fill:#999999;fill-opacity:1"
         id="path3793" />
      <path
         d="m 389.75671,531.51837 -0.352,0 c -0.29334,0 -0.52267,-0.0933 -0.688,-0.28 -0.16001,-0.18666 -0.24001,-0.42933 -0.24,-0.728 l 0,-2.544 -0.528,0 0,-0.304 0.528,0 0,-1.232 0.408,0 0,1.232 0.872,0 0,0.304 -0.872,0 0,2.552 c -10e-6,0.42667 0.19733,0.64 0.592,0.64 l 0.28,0 0,0.36"
         style="font-size:8px;fill:#999999;fill-opacity:1"
         id="path3795" />
      <path
         d="m 391.43046,526.32637 -0.504,0 0,-0.504 0.504,0 0,0.504 m -0.048,5.192 -0.408,0 0,-3.856 0.408,0 0,3.856"
         style="font-size:8px;fill:#999999;fill-opacity:1"
         id="path3797" />
      <path
         d="m 395.80758,529.59037 c 0,0.576 -0.112,1.03467 -0.336,1.376 -0.26134,0.4 -0.66667,0.6 -1.216,0.6 -0.54933,0 -0.95467,-0.2 -1.216,-0.6 -0.224,-0.34133 -0.336,-0.8 -0.336,-1.376 0,-0.576 0.112,-1.03466 0.336,-1.376 0.26133,-0.39999 0.66667,-0.59999 1.216,-0.6 0.54933,10e-6 0.95466,0.20001 1.216,0.6 0.224,0.34134 0.336,0.8 0.336,1.376 m -0.408,0 c 0,-1.07733 -0.38134,-1.61599 -1.144,-1.616 -0.76267,10e-6 -1.144,0.53867 -1.144,1.616 0,1.07734 0.38133,1.616 1.144,1.616 0.76266,0 1.144,-0.53866 1.144,-1.616"
         style="font-size:8px;fill:#999999;fill-opacity:1"
         id="path3799" />
      <path
         d="m 400.09871,531.51837 -0.408,0 0,-2.392 c -1e-5,-0.768 -0.35467,-1.15199 -1.064,-1.152 -0.34667,10e-6 -0.61601,0.10401 -0.808,0.312 -0.18667,0.208 -0.28001,0.488 -0.28,0.84 l 0,2.392 -0.408,0 0,-3.856 0.408,0 0,0.456 c 0.28799,-0.33599 0.66666,-0.50399 1.136,-0.504 0.44266,10e-6 0.78933,0.13067 1.04,0.392 0.25599,0.256 0.38399,0.60534 0.384,1.048 l 0,2.464"
         style="font-size:8px;fill:#999999;fill-opacity:1"
         id="path3801" />
      <path
         d="m 406.39033,530.97437 c -0.34667,0.39467 -0.77067,0.592 -1.272,0.592 -0.54933,0 -0.976,-0.19733 -1.28,-0.592 -0.27733,-0.35733 -0.416,-0.81866 -0.416,-1.384 0,-0.576 0.136,-1.04 0.408,-1.392 0.29867,-0.38933 0.728,-0.58399 1.288,-0.584 0.27733,10e-6 0.50933,0.0453 0.696,0.136 0.18666,0.0907 0.37866,0.24267 0.576,0.456 l -0.28,0.256 c -0.29334,-0.32533 -0.624,-0.48799 -0.992,-0.488 -0.85867,10e-6 -1.288,0.53867 -1.288,1.616 0,1.07734 0.42933,1.616 1.288,1.616 0.368,0 0.69866,-0.16266 0.992,-0.488 l 0.28,0.256"
         style="font-size:8px;fill:#999999;fill-opacity:1"
         id="path3803" />
      <path
         d="m 410.46383,529.59037 c 0,0.576 -0.112,1.03467 -0.336,1.376 -0.26134,0.4 -0.66667,0.6 -1.216,0.6 -0.54933,0 -0.95467,-0.2 -1.216,-0.6 -0.224,-0.34133 -0.336,-0.8 -0.336,-1.376 0,-0.576 0.112,-1.03466 0.336,-1.376 0.26133,-0.39999 0.66667,-0.59999 1.216,-0.6 0.54933,10e-6 0.95466,0.20001 1.216,0.6 0.224,0.34134 0.336,0.8 0.336,1.376 m -0.408,0 c 0,-1.07733 -0.38134,-1.61599 -1.144,-1.616 -0.76267,10e-6 -1.144,0.53867 -1.144,1.616 0,1.07734 0.38133,1.616 1.144,1.616 0.76266,0 1.144,-0.53866 1.144,-1.616"
         style="font-size:8px;fill:#999999;fill-opacity:1"
         id="path3805" />
      <path
         d="m 414.75496,531.51837 -0.408,0 0,-2.392 c -1e-5,-0.768 -0.35467,-1.15199 -1.064,-1.152 -0.34667,10e-6 -0.61601,0.10401 -0.808,0.312 -0.18667,0.208 -0.28001,0.488 -0.28,0.84 l 0,2.392 -0.408,0 0,-3.856 0.408,0 0,0.456 c 0.28799,-0.33599 0.66666,-0.50399 1.136,-0.504 0.44266,10e-6 0.78933,0.13067 1.04,0.392 0.25599,0.256 0.38399,0.60534 0.384,1.048 l 0,2.464"
         style="font-size:8px;fill:#999999;fill-opacity:1"
         id="path3807" />
      <path
         d="m 418.98371,530.42237 c -10e-6,0.4 -0.16534,0.69867 -0.496,0.896 -0.27201,0.16533 -0.62134,0.248 -1.048,0.248 -0.65601,0 -1.176,-0.184 -1.56,-0.552 l 0.28,-0.28 c 0.29866,0.31467 0.71999,0.472 1.264,0.472 0.77333,0 1.15999,-0.26133 1.16,-0.784 -10e-6,-0.38933 -0.24534,-0.60533 -0.736,-0.648 l -0.64,-0.056 c -0.34667,0 -0.62134,-0.08 -0.824,-0.24 -0.224,-0.176 -0.336,-0.432 -0.336,-0.768 0,-0.368 0.144,-0.64799 0.432,-0.84 0.25066,-0.17066 0.56799,-0.25599 0.952,-0.256 0.53866,10e-6 0.98933,0.13601 1.352,0.408 l -0.272,0.272 c -0.29867,-0.21866 -0.65867,-0.32799 -1.08,-0.328 -0.65601,10e-6 -0.98401,0.248 -0.984,0.744 -10e-6,0.384 0.26133,0.6 0.784,0.648 l 0.624,0.056 c 0.36266,0.032 0.63199,0.11467 0.808,0.248 0.21333,0.16534 0.31999,0.41867 0.32,0.76"
         style="font-size:8px;fill:#999999;fill-opacity:1"
         id="path3809" />
      <path
         d="m 423.12883,531.51837 -0.408,0 0,-0.456 c -0.288,0.336 -0.66667,0.504 -1.136,0.504 -0.448,0 -0.79733,-0.128 -1.048,-0.384 -0.25067,-0.256 -0.376,-0.608 -0.376,-1.056 l 0,-2.464 0.408,0 0,2.392 c 0,0.768 0.35467,1.152 1.064,1.152 0.34666,0 0.61333,-0.104 0.8,-0.312 0.192,-0.208 0.288,-0.488 0.288,-0.84 l 0,-2.392 0.408,0 0,3.856"
         style="font-size:8px;fill:#999999;fill-opacity:1"
         id="path3811" />
      <path
         d="m 425.94158,531.51837 -0.352,0 c -0.61867,0 -0.928,-0.33333 -0.928,-1 l 0,-4.696 0.408,0 0,4.688 c 0,0.432 0.19733,0.648 0.592,0.648 l 0.28,0 0,0.36"
         style="font-size:8px;fill:#999999;fill-opacity:1"
         id="path3813" />
      <path
         d="m 428.35046,531.51837 -0.352,0 c -0.29334,0 -0.52267,-0.0933 -0.688,-0.28 -0.16001,-0.18666 -0.24001,-0.42933 -0.24,-0.728 l 0,-2.544 -0.528,0 0,-0.304 0.528,0 0,-1.232 0.408,0 0,1.232 0.872,0 0,0.304 -0.872,0 0,2.552 c -10e-6,0.42667 0.19733,0.64 0.592,0.64 l 0.28,0 0,0.36"
         style="font-size:8px;fill:#999999;fill-opacity:1"
         id="path3815" />
      <path
         d="m 432.24021,531.51837 -0.408,0 0,-0.384 c -0.28801,0.288 -0.68001,0.432 -1.176,0.432 -0.94401,0 -1.416,-0.368 -1.416,-1.104 0,-0.52266 0.26133,-0.86666 0.784,-1.032 0.16533,-0.0533 0.35199,-0.08 0.56,-0.08 l 1.248,0 0,-0.432 c -10e-6,-0.62933 -0.36267,-0.94399 -1.088,-0.944 -0.48001,10e-6 -0.83467,0.16267 -1.064,0.488 l -0.296,-0.256 c 0.28266,-0.39466 0.73599,-0.59199 1.36,-0.592 0.99733,10e-6 1.49599,0.42134 1.496,1.264 l 0,2.64 m -0.408,-1.344 0,-0.496 -1.2,0 c -0.65601,0 -0.98401,0.25867 -0.984,0.776 -1e-5,0.50134 0.33599,0.752 1.008,0.752 0.43733,0 0.75733,-0.0987 0.96,-0.296 0.14399,-0.13866 0.21599,-0.384 0.216,-0.736"
         style="font-size:8px;fill:#999999;fill-opacity:1"
         id="path3817" />
      <path
         d="m 436.72371,531.51837 -0.408,0 0,-2.392 c -1e-5,-0.768 -0.35467,-1.15199 -1.064,-1.152 -0.34667,10e-6 -0.61601,0.10401 -0.808,0.312 -0.18667,0.208 -0.28001,0.488 -0.28,0.84 l 0,2.392 -0.408,0 0,-3.856 0.408,0 0,0.456 c 0.28799,-0.33599 0.66666,-0.50399 1.136,-0.504 0.44266,10e-6 0.78933,0.13067 1.04,0.392 0.25599,0.256 0.38399,0.60534 0.384,1.048 l 0,2.464"
         style="font-size:8px;fill:#999999;fill-opacity:1"
         id="path3819" />
      <path
         d="m 439.60046,531.51837 -0.352,0 c -0.29334,0 -0.52267,-0.0933 -0.688,-0.28 -0.16001,-0.18666 -0.24001,-0.42933 -0.24,-0.728 l 0,-2.544 -0.528,0 0,-0.304 0.528,0 0,-1.232 0.408,0 0,1.232 0.872,0 0,0.304 -0.872,0 0,2.552 c -10e-6,0.42667 0.19733,0.64 0.592,0.64 l 0.28,0 0,0.36"
         style="font-size:8px;fill:#999999;fill-opacity:1"
         id="path3821" />
      <path
         d="m 443.54621,530.42237 c -10e-6,0.4 -0.16534,0.69867 -0.496,0.896 -0.27201,0.16533 -0.62134,0.248 -1.048,0.248 -0.65601,0 -1.176,-0.184 -1.56,-0.552 l 0.28,-0.28 c 0.29866,0.31467 0.71999,0.472 1.264,0.472 0.77333,0 1.15999,-0.26133 1.16,-0.784 -10e-6,-0.38933 -0.24534,-0.60533 -0.736,-0.648 l -0.64,-0.056 c -0.34667,0 -0.62134,-0.08 -0.824,-0.24 -0.224,-0.176 -0.336,-0.432 -0.336,-0.768 0,-0.368 0.144,-0.64799 0.432,-0.84 0.25066,-0.17066 0.56799,-0.25599 0.952,-0.256 0.53866,10e-6 0.98933,0.13601 1.352,0.408 l -0.272,0.272 c -0.29867,-0.21866 -0.65867,-0.32799 -1.08,-0.328 -0.65601,10e-6 -0.98401,0.248 -0.984,0.744 -10e-6,0.384 0.26133,0.6 0.784,0.648 l 0.624,0.056 c 0.36266,0.032 0.63199,0.11467 0.808,0.248 0.21333,0.16534 0.31999,0.41867 0.32,0.76"
         style="font-size:8px;fill:#999999;fill-opacity:1"
         id="path3823" />
    </g>
  </g>
</svg>
